<svg width="2745" height="376" xmlns="http://www.w3.org/2000/svg" xmlns:xlink="http://www.w3.org/1999/xlink" xml:space="preserve" overflow="hidden"><g transform="translate(-293 -1095)"><g><path d="M296.5 1159.67C296.5 1125.89 323.886 1098.5 357.668 1098.5L950.333 1098.5C984.115 1098.5 1011.5 1125.89 1011.5 1159.67L1011.5 1404.33C1011.5 1438.11 984.115 1465.5 950.333 1465.5L357.668 1465.5C323.886 1465.5 296.5 1438.11 296.5 1404.33Z" stroke="#7F7F7F" stroke-width="4.58333" stroke-linecap="butt" stroke-linejoin="miter" stroke-miterlimit="8" stroke-opacity="1" fill="none" fill-rule="evenodd"/><text fill="#333333" fill-opacity="1" font-family="Source Sans Pro,Source Sans Pro_MSFontService,sans-serif" font-style="normal" font-variant="normal" font-weight="400" font-stretch="normal" font-size="73" text-anchor="start" direction="ltr" writing-mode="lr-tb" unicode-bidi="normal" text-decoration="none" transform="matrix(1 0 0 1 545.165 1307)">Causes</text><path d="M1308.5 1159.67C1308.5 1125.89 1335.89 1098.5 1369.67 1098.5L1961.33 1098.5C1995.11 1098.5 2022.5 1125.89 2022.5 1159.67L2022.5 1404.33C2022.5 1438.11 1995.11 1465.5 1961.33 1465.5L1369.67 1465.5C1335.89 1465.5 1308.5 1438.11 1308.5 1404.33Z" stroke="#7F7F7F" stroke-width="4.58333" stroke-linecap="butt" stroke-linejoin="miter" stroke-miterlimit="8" stroke-opacity="1" fill="none" fill-rule="evenodd"/><text fill="#333333" fill-opacity="1" font-family="Source Sans Pro,Source Sans Pro_MSFontService,sans-serif" font-style="normal" font-variant="normal" font-weight="400" font-stretch="normal" font-size="73" text-anchor="start" direction="ltr" writing-mode="lr-tb" unicode-bidi="normal" text-decoration="none" transform="matrix(1 0 0 1 1548.61 1307)">Change</text><path d="M2319.5 1159.67C2319.5 1125.89 2346.89 1098.5 2380.67 1098.5L2972.33 1098.5C3006.11 1098.5 3033.5 1125.89 3033.5 1159.67L3033.5 1404.33C3033.5 1438.11 3006.11 1465.5 2972.33 1465.5L2380.67 1465.5C2346.89 1465.5 2319.5 1438.11 2319.5 1404.33Z" stroke="#7F7F7F" stroke-width="4.58333" stroke-linecap="butt" stroke-linejoin="miter" stroke-miterlimit="8" stroke-opacity="1" fill="none" fill-rule="evenodd"/><text fill="#333333" fill-opacity="1" font-family="Source Sans Pro,Source Sans Pro_MSFontService,sans-serif" font-style="normal" font-variant="normal" font-weight="400" font-stretch="normal" font-size="73" text-anchor="start" direction="ltr" writing-mode="lr-tb" unicode-bidi="normal" text-decoration="none" transform="matrix(1 0 0 1 2453.23 1307)">Consequences</text><path d="M1054 1279.85 1235.22 1279.85 1235.22 1282.15 1054 1282.15ZM1230.64 1267.25 1258.14 1281 1230.64 1294.75Z" fill="#595959" fill-rule="nonzero" fill-opacity="1"/><path d="M2061 1276.85 2242.22 1276.85 2242.22 1279.15 2061 1279.15ZM2237.64 1264.25 2265.14 1278 2237.64 1291.75Z" fill="#595959" fill-rule="nonzero" fill-opacity="1"/></g></g></svg>