<svg xmlns="http://www.w3.org/2000/svg" viewBox="0 0 146.249 97.202"><defs><style>.cls-1{fill:#00374b;}</style></defs><g id="Layer_2" data-name="Layer 2"><g id="Layer_1-2" data-name="Layer 1"><rect class="cls-1" x="80.123" y="55.264" width="16.519" height="4.016"/><path class="cls-1" d="M44.847,69.75a32.224,32.224,0,0,0,.615-4.016H28.88a6.137,6.137,0,0,1-2.11,4.016Z"/><path class="cls-1" d="M45.567,64.514c.051-.843.08-1.708.08-2.6V60.5H29.128v2.422c0,.571-.035,1.088-.078,1.593Z"/><path class="cls-1" d="M51,60.5v1.414c0,.894.031,1.757.081,2.6H67.592c-.043-.5-.079-1.022-.079-1.593V60.5Z"/><rect class="cls-1" x="101.99" y="55.264" width="16.266" height="4.016"/><path class="cls-1" d="M118.256,60.5H101.99v1.288c0,.938.026,1.844.072,2.727h16.251c-.026-.432-.057-.855-.057-1.341Z"/><path class="cls-1" d="M79.875,65.734a6.137,6.137,0,0,1-2.11,4.016h18.1a32.519,32.519,0,0,0,.592-4.016Z"/><path class="cls-1" d="M67.762,65.734H51.184a32.71,32.71,0,0,0,.592,4.016h18.1A6.133,6.133,0,0,1,67.762,65.734Z"/><path class="cls-1" d="M80.123,60.5v2.422c0,.571-.035,1.088-.078,1.593H96.56c.05-.844.082-1.707.082-2.6V60.5Z"/><path class="cls-1" d="M41.388,77.8a17.92,17.92,0,0,0,1.037-1.593H3.208a17.047,17.047,0,0,0,3.245,4.016H43.811Z"/><path class="cls-1" d="M16.519,62.921V60.5H0v1.414c0,.894.031,1.757.082,2.6H16.6C16.554,64.009,16.519,63.492,16.519,62.921Z"/><polygon class="cls-1" points="35.723 90.691 48.743 90.691 51.512 87.922 50.265 86.675 31.707 86.675 35.723 90.691"/><rect class="cls-1" x="123.317" y="41.107" width="22.932" height="12.937"/><path class="cls-1" d="M102.655,69.75h17.583a6.091,6.091,0,0,1-1.8-4.016H102.157A39.475,39.475,0,0,0,102.655,69.75Z"/><path class="cls-1" d="M52.1,70.97a22.468,22.468,0,0,0,1.486,4.015H94.052a22.547,22.547,0,0,0,1.487-4.015Z"/><path class="cls-1" d="M58.938,81.44c3.458,2.511,8.05,3.862,13.785,4.015h2.192c5.734-.153,10.326-1.5,13.783-4.015Z"/><path class="cls-1" d="M54.2,76.205a17.047,17.047,0,0,0,3.245,4.016H90.189a17.043,17.043,0,0,0,3.244-4.016Z"/><rect class="cls-1" x="129.73" y="60.499" width="16.519" height="4.015"/><path class="cls-1" d="M129.73,65.734v.213a5.554,5.554,0,0,1-2.058,3.8h18.577V65.734Z"/><rect class="cls-1" x="129.73" y="55.264" width="16.519" height="4.016"/><path class="cls-1" d="M104.661,76.205a17.385,17.385,0,0,0,2.617,4.016h38.971V76.205Z"/><path class="cls-1" d="M118.256,54.044V22.318c0-5.673,1.892-7.944,5.927-7.944,3.4,0,5.3,1.514,5.421,5.044V32.092h16.267V20.806C145.744,7.187,138.179,0,124.183,0,109.3,0,101.99,8.2,101.99,23.706V54.044Z"/><path class="cls-1" d="M102.926,70.97a26.413,26.413,0,0,0,1.227,4.015h42.1V70.97Z"/><path class="cls-1" d="M67.513,54.044V42.923c0-5.548,2.018-7.944,6.306-7.944s6.3,2.4,6.3,7.944V54.044H96.642V44.058c0-15.51-7.566-23.706-22.823-23.58C58.56,20.478,51,28.548,51,44.058v9.986Z"/><polygon class="cls-1" points="36.942 91.911 42.233 97.202 47.524 91.911 36.942 91.911"/><path class="cls-1" d="M16.519,54.044V22.571c0-5.548,2.018-7.944,6.305-7.944s6.3,2.4,6.3,7.944V54.044H45.647V23.706C45.647,8.2,38.081,0,22.824.126,7.566.126,0,8.2,0,23.706V54.044Z"/><rect class="cls-1" y="55.264" width="16.519" height="4.016"/><rect class="cls-1" x="50.995" y="55.264" width="16.519" height="4.016"/><path class="cls-1" d="M18.877,69.75a6.137,6.137,0,0,1-2.11-4.016H.189A32.71,32.71,0,0,0,.781,69.75Z"/><rect class="cls-1" x="29.128" y="55.264" width="16.519" height="4.016"/><path class="cls-1" d="M108.469,81.44a16.211,16.211,0,0,0,10.716,4.015H121.1c4.8-.175,8.262-1.524,10.715-3.957l.881,2.86h13.551V81.44Z"/><path class="cls-1" d="M43.063,74.985a22.464,22.464,0,0,0,1.5-4.015H1.1A22.47,22.47,0,0,0,2.59,74.985Z"/><path class="cls-1" d="M49.046,85.455,45.03,81.44H7.943c3.458,2.511,8.05,3.862,13.785,4.015Z"/></g></g></svg>