<svg id="Layer_1" data-name="Layer 1" xmlns="http://www.w3.org/2000/svg" viewBox="0 0 624.29 638"><defs><style>.cls-1{fill:#074f8c;}.cls-2{fill:#fff;}</style></defs><title>Gothenburg University Logo Vector</title><g id="logo-en"><g id="bcPage-1"><g id="bcMobile"><path id="bcRectangle" class="cls-1" d="M188.05,181V798.52c0,11.27,9,20.48,19.91,20.48H792.23c10.9,0,19.91-9.21,19.91-20.48V181H188.05Z" transform="translate(-187.86 -181)"/></g></g><path class="cls-2" d="M445.61,358.16c14.84-14.84,34-22.54,54.48-21.42,41.9,1.13,75.34,36.82,74.4,79.66A79.32,79.32,0,0,1,551,471.07c-15,14.28-34,22-54.49,21.42-41.89-1.13-75.33-36.83-74.39-79.66a79.32,79.32,0,0,1,23.48-54.67ZM547.06,465.81a73.86,73.86,0,0,0,21.42-50.54c.56-39.83-30.06-72.52-69-73.45a67.93,67.93,0,0,0-50,19.91,73.81,73.81,0,0,0-21.42,50.54c-.56,39.82,30.06,72.51,68.95,73.45A68,68,0,0,0,547.06,465.81Z" transform="translate(-187.86 -181)"/><path class="cls-2" d="M500.47,309.69c27.43.38,52.79,11.84,71.77,32.13a106.06,106.06,0,0,1,28.55,74.95c-.94,57.68-47.91,103.52-104.83,102.58-56.36-1.5-101.82-49.41-100.32-107.65A103.58,103.58,0,0,1,427,338.25C447.12,318.9,473,308.56,500.47,309.69Zm96.38,106.15a101.64,101.64,0,0,0-27.43-71.39c-18.6-19.54-43-30.63-68.95-31.19s-50.91,9.58-69.89,28a102.48,102.48,0,0,0-30.43,70.45C398.65,467.31,442,513.34,496,514.28,550.44,515.78,595.34,471.44,596.85,415.84Z" transform="translate(-187.86 -181)"/><path class="cls-2" d="M519.07,476.52c7.89-1.51,26.86-10.15,32.31-28.94,5.64-12.77,7.14-24-.94-24-3,0-4.51,6-.56,8.08.94,5.07-7.52,24-19,24-2.44,0-2.44-4.13-6-2.63-1.5.94.94,4.14,0,5.08a1.58,1.58,0,0,1-2.44,0c-.94-1.13-1.88-6.2-5.45-5.64-3.38.56,1.51,5.64.57,7.7s-3,2.63-4,.57c-.94-1.51-.94-3.57-1.5-5.08,0-3.57-2.63-3.57-3.57-3.57-2.07.57-2.63,3-.57,5.08.57,2.06,2.45,4.13,1.51,5.07-.57.94-3,.94-3.57-.57-.57-1.12-1.13-3.56-2.07-6.19.38-4-2.07-4.51-3.57-4.51-2.06.56-3.94,2.44-1.5,5.07,1.5,3,2.63,5.07,2.07,6.57-.57,2.07-2.45,1.51-3,0-.94-2.06-1.5-5.07-2.44-7.7.56-3.94-1.51-4.51-3-4.51s-2.44.94-.94,5.08c.38,2.63,1.51,6.19.94,7.13a2.11,2.11,0,0,1-3.94,0,20.05,20.05,0,0,1-1.51-7.7c.38-2.63,1.88-6.2-2.06-5.63-2.07,0-3,2.06-2.07,5.07-1.13,3.57.38,6.2-.56,7.7s-3.95.94-4.51-.56c-.57-2.07.94-6.2,0-9.77.94-1.13,2.06-6.2-1.51-5.64a3.49,3.49,0,0,0-2.06,5.64c0,1.5-1.13,8.26-2.07,9.2-.56.94-3.57,1.51-3.57-.56-.56-2.07.94-4.51.94-7.14,2.07-2.07,1.5-4.51,0-5.07-2.44-.94-3.57,1.13-3,4.13-.57,2.63-1.13,4.51-2.07,5.64s-2.44.56-3-1.51,1.51-6.76,2.45-9.76c3-.38,4.5-5.64.56-6.58-1.5-.56-2.44,2.07-2.44,3.57a1.73,1.73,0,0,1-1.51.56c-3-1.12-3.38-8.83,3.57-9.77,3,0,3-3.19-.56-2.63-9,.38-11.08,10.71-6,17.29,0,.94-.94,2.44-.94,3-1.88.57-10-5.07-5.45-17.84,3-9.21,0-15.78-6-14.85s-4.51,10.15,2.07,6.58c-.94,8.64-6,11.27-2.45,23.48,5.45,19,36.45,34.2,74.4,27.06Z" transform="translate(-187.86 -181)"/><path class="cls-2" d="M535,386.72c1.5.56,7.32,3,8.83,6.76,0,2.07-.94,2.63-1.51,2.07a18.74,18.74,0,0,0-6-2.07h-.56c-.94,2.63,2.07,6.76,1.5,11.27-.56,4.13-3,9.77-3,10.71,0,1.88,0,.38,3.57,4.51,7.89,9.2-3.57,23.48-5.08,29.68-.37,2.63-8.83,4.7-10.89,2.63-.57-.37,0-1.88,1.5-3s3-1.13,5.07-2.07a.55.55,0,0,0,.57-.56c1.87-10.15,3-18.23.93-28-.56-1.5-1.5-3-1.5-5.63,0-3.2,2.44-9.21-.56-16.91-.94-1.5-4.51-.56-4.51,1.5-.56,5.07-1.13,10.71-3.57,16.35-1.5,3,0,4.13,1.5,5.07,5.45,4.13,4.51,13.34.94,20.48a25.28,25.28,0,0,0-3,5.63.56.56,0,0,0-.57.57c-2.44,3.57-10.52,3.94-12,3-.94-.94.56-2.63,1.5-3.57.94-1.12,2.44-2.06,5.45-2.63a.55.55,0,0,0,.56-.56,29.68,29.68,0,0,0-.94-22c-1.5-2.63-1.5-4.13-.93-7.14.37-2.63,1.87-13.34,2.44-19.91a.56.56,0,0,0-.57-.57c-.94,0-3,0-3.94.57-1.5,1.5.94,18.41-6,19.35-5.64.93-9-7.71-9.58-16.91-.57-7.14.56-15.22,3-17.85-1.88-.56-2.44-4.13-.94-5.64,0-1.69-2.44-5.63-3-9.77a.56.56,0,0,0-.57-.56c-3-.56-14.46,1.5-18-9.77-.57-1.5,2.44-3.94,3.94-.94,1.13,1.51,3,3.95,5.08,4.51,2.44,1.13,11.46.57,10.89-3a4.1,4.1,0,0,1,3-5.08,20.39,20.39,0,0,1,9,.94c3.94,2.63.37,5.64-3.57,5.64-7,0-3.39,10.71-2.45,13.34a1.31,1.31,0,0,0,.94.56c4.51,0,13-1.5,19.92-1.5a.56.56,0,0,0,.56-.57c0-1.5-.38-3.94-.94-4.5-1.5,0-6-1.51-5.45-5.64,0-2.07,3-3,5.45-3,4,0,8.45,2.07,6,7.14,0,1.51.38,4.7.94,5.64a.56.56,0,0,0,.57.56,28.54,28.54,0,0,1,7.51.94c1.13,0,2.07,1.5,2.07,3-.57,6.76-2.07,9.77-3.57,16.91Zm-33.44-2.07c-3.57,0-2.63,20.85.94,20.85C504.41,405.5,504.41,384.65,501.6,384.65Zm11.83-10.15c-.37-1.12-1.5-1.5-1.88-2.06a20.29,20.29,0,0,0-5.07.56,2.32,2.32,0,0,0-2.44,2.07c-.56,1.69-.56,2.06-1.5,2.63,5.44,1.5,4.51,7.51,6,8.08a9.05,9.05,0,0,0,5.45,0c.94,0,.94-1.69.94-2.63,0-3-.94-7.71-1.51-8.65Zm17.66-1.5c-.37-1.5-9-1.5-10,.56-1.13,2.07-.57,9.77.93,10.71,1.88.94,6,.38,7-.56C530,382.58,530.9,374.5,531.09,373Z" transform="translate(-187.86 -181)"/><path class="cls-2" d="M469.1,423.91c-16,1.13-29.5-12.21-27.43-30.06,1.88-17.28,19.91-22,31.37-19.91,10.33,2.07,17.85,12.4,18.41,20.48C492.58,405.5,486.94,422.41,469.1,423.91ZM477,412.27c-.57,1.5,1.5,3.57,2.44,3,1.5-.37,5.63-5.07,5.07-6.57s-2.07-1.51-3-1.51S477,410.76,477,412.27Zm9.95-19.35a3,3,0,0,0-3.57.93c0,.57,0,6.2.57,7.14a3,3,0,0,0,3.57.57C489,400.43,488.07,393.29,486.94,392.92Zm-9-12.4a1.86,1.86,0,0,0-1.51,2.63c0,1.5,4.14,4.5,5.08,4.5.37,0,2.44-.56,2.44-1.5C483.94,384.65,480,380.14,477.93,380.52Zm-7.33-2.07c-1.13-1.5-9-1.5-10.15.56-.94.94,0,3,2.07,3,1.13,0,7.52,0,8.08-.94.94-.56.56-1.69,0-2.63Zm4.88,11.27c0-2.44-9-6-11.46-3-.56.93,3,6.2,4.51,7.13.94.38,7-2.63,7-4.13Zm-19.91,9.77c.56.56,6.95-2.07,7.51-3.57.38-2.07-3-7.14-3.57-7.14C455.57,389.16,453.5,397.42,455.57,399.49Zm13,9c1.51-.94-1.5-7.52-3-8.08-2.45-.38-7.52,3.19-7.52,4.13C458,406.63,464.59,410.76,468.53,408.51Zm10.15-14.28c-1.13-.56-6.58,2.07-8.08,3.57s2.44,7.14,3.94,7.7C477.55,407.19,481.5,398.36,478.68,394.23Zm-22.55-9.77c0-1.5-1.12-3-2.06-3-1.51,0-5.45,4.13-5.45,6.19a2.21,2.21,0,0,0,3,2.07C452,389.16,455.57,385.59,456.13,384.46Zm-5.63,18c.56-.94,0-6.2-.57-7.33-.37-1.5-3.38-.38-3.94.56-.57,2.07-.57,6.77.94,7.71a3.31,3.31,0,0,0,3.57-.94Zm5.07,13.15a2.4,2.4,0,0,0,2.07-3c-.57-.94-4.14-5.07-5.08-5.07-.94-.38-3,1.13-3,2.63C450.12,411.7,454.07,415.27,455.57,415.65Zm16.53,2.82c1.13-.94,0-3-.94-3.57-1.5-.57-5.63,0-6.57,0-2.07,0-2.45,2.44-1.51,3C464.59,418.84,471,418.84,472.1,418.47Zm-2.63-90.93,3.95.56-2.45,3-.56,4.13-3-2.63-3.94-.56,2.44-3,.57-4.13Zm70.64,171v-4.14l2.44-3-3.94-.57-3-2.06L535,492.3,533,495.87h3.95l3,2.63Zm-84-4.14-2.06-3.57H458l3-2.63v4.14l2.44,3.57h-3.95l-3,2.63Zm-23.86-12.77-.94,1.5,3.57,3,1.51-.94c-.57-.57-.57-.94,0-1.5l3.94-4.51c1.13-.94,2.07-.94,3.57,0,1.13.94,1.5,2.06.57,3l-3.95,4.51c-.56.56-.94.56-1.5,0l-.94,1.5,3.94,3.57,1.51-.94c-.57-.56-.57-.93,0-1.5l3.94-4.51c2.07-2.06,1.5-5.07-1.5-7.7-2.44-2.63-5.45-2.63-7.52-.56L434.53,481C434.15,481.59,433.59,481.59,432.27,481.59Zm-10.7-16.72c-.57.37-.94.37-1.13.75l-.94,1.5,2.44,3.57,1.5-.94c-.56-.56-.56-.94,0-1.5l3-2.63c0-.38.94-.94.94-.94a4.14,4.14,0,0,0-.56,1.5l-2.45,8.08,2.45,3,1.5-1.51c-.57-.56-.57-.93,0-1.5l6.57-4.51c.57-.56.94-.56,1.51,0l.94-1.5-2.45-3.57-1.5.94c.56.56.56.94,0,1.5l-3.94,3c0,.37-.94.94-.94.94a4.14,4.14,0,0,0,.56-1.5l2.44-9.21-1.5-2.07-8.45,6.58Zm3.56-16.35-1.69.76c.38.93,0,.93-.56,1.5l-6.95,3.57c-.94.37-.94.37-1.5-.57l-1.51.94,2.07,4.51,1.5-.56c-.37-.94,0-.94.57-1.5l7.14-3.76c.93-.38.93-.38,1.5.56l1.5-.94-2.07-4.51Zm-16-13.9c-1.13,0-1.13-.37-1.51-.94l-1.5.94,1.5,3.57h1.69c-.37-.37,0-.94.57-.94l5.45.57h2.44a6.66,6.66,0,0,0-2.44.94l-4.51,3.56c-.38.38-.94,0-.94-.56l-1.51.94,1.51,5.07H412a1.7,1.7,0,0,1,.57-1.5l9-7.14-.94-3.57-11.46-.94Zm8.45-18.41s-5.07,0-4.7.19v1.5c.94,0,1.51,0,1.51,1.5l.56,3-3.57.56v-2.06c0-.94.38-1.51.94-1.51l-.56-1.5-3,.57V420c.38,0,.94,0,.94.94V423l-3,.57v-2.63c0-1.51,0-2.07.94-2.07l-.56-1.5-3,.56.94,10.15h2.07c0-.38,0-.94.94-.94l8.08-.57c.37,0,.94,0,.94.94l1.5-.56-.94-10.71Zm-.75-19v.56a1.38,1.38,0,0,1-1.5,1.5,3.31,3.31,0,0,0-3,2.07c-.56-2.07-1.5-3-3-3-2.44,0-3.94,1.51-4.51,5.08l-.93,6.57,1.5.56c0-.93.37-.93.94-.93l8.08.93c.94,0,.94,0,.94.94h2.06l.57-5.07-1.51-.56c0,.94-.37.94-.94.94l-2.44-.57v-1.5c0-2.63,3.38-1.13,5.45-2.63l.56-4.13S417.06,396.86,416.87,397.24Zm-7.33,4.32c.94,0,1.5,1.12,1.5,2.63v2.06l-3.94-.56v-2.07C407.1,401.93,408,401.56,409.54,401.56Zm9.39-19.92c-3-.94-4.5.94-6,3.57-.56,1.51-1.12,2.63-2.06,2.07a2.26,2.26,0,0,1-.57-2.63c.38-1.13.94-2.63,2.45-2.63l.56-.94-2.44-1.5c-.38.94-1.88,2.44-2.45,4.51-.56,3,0,5.63,2.45,6.57,3,1.13,4.51-.94,5.44-3,.94-1.5,1.51-2.63,2.45-2.06a1.92,1.92,0,0,1,.94,2.63c-.57,1.13-1.51,2.63-3,2.63l-.56.94,2.44,1.5c.94-.37,2.07-1.88,3-4.51S422.13,383.15,418.93,381.64Zm7.14-8.08c-.56,1.13-.94,1.13-1.5.57l-6.95-3.57c-1.13-.56-1.13-.56-.56-1.5l-1.51-.57L413.11,373l1.5.94c.57-1.13.94-1.13,1.51-.56l6.95,3.57c.56.56,1.13.56.56,1.5l1.5.56,2.45-4.51Zm3-19.72-3-1.5-6.95,9.76,2.45,2.63.56-.56c-.56-1.13-.94-1.69,0-2.63l.94-.94,6.57,5.07c.57.57.57.94,0,1.51l1.51.56,3-4.13-.94-1.51c-.56.57-.94.57-1.5,0L425.13,357l.94-.94c.57-1.12,1.13-1.12,2.07-.56A13.46,13.46,0,0,0,429.08,353.84ZM448.62,349s-1.5-1.5-1.5-1.31c-.57.56-.94.56-1.51,0l-7.51-4.13c-.57,0-.57-.38,0-.94l-1.51-.94-5.07,5.07.94,1.5c.38-.56.94-.56.94,0l3.57,8.08a1.72,1.72,0,0,1-.56,1.5l1.5.94,3-3-.94-1.51c-.38.57-.38.57-.94,0l-.57-.93,3.57-3.57,1.51.93c.56.38.56.38,0,.94l1.5.94,3.57-3.57Zm-8.08-.56L438.1,351l-1.51-3.57a16.55,16.55,0,0,1-1.5-2.07,16.64,16.64,0,0,1,2.07,1.51Zm15.59-4.13c2.45-1.51,3.95-3.95,2.26-6.58-1.51-2.44-3.57-1.88-6.58-.94-1.5.57-2.44.57-3,0a1.92,1.92,0,0,1,.94-2.63c1.12-.56,2.63-.94,3.56,0l.57-.94-.94-2.63a17,17,0,0,0-4.51,1.51c-2.44,1.5-3.94,3.94-2.44,6.57,1.5,1.88,3.94,1.88,6,.94s3-.94,3.57,0a1.92,1.92,0,0,1-.94,2.63c-.94.56-3,.94-3.95,0l-.93.56.93,3a9.15,9.15,0,0,0,5.45-1.5ZM493.52,326l.56-2.81-5.07.56v2.07a1,1,0,0,1,.94.94v1.5a4.14,4.14,0,0,1-1.5.56c-2.45,0-3.39-1.13-3.95-4.13s.56-4.51,3-5.07c.94,0,2.44,0,3,1.5h.94l.57-3c-.94,0-3-1.12-5.45-.56-4.51.94-7.14,3.57-6.58,8.08.57,5.26,4.14,6.76,8.08,6.2,3-.57,3-.94,5.07-1.5v-1.51a1.28,1.28,0,0,1-.56-.94V327c0-.37,0-.94.94-.94Zm19-.56c0-5.07-2.63-7.14-6.57-7.7-3.95,0-6.95,1.5-7.52,6.57,0,5.08,2.63,7.14,6.58,7.71S511.93,331.11,512.49,325.47Zm-4.51-.19c-.56,3.2-1.5,4.14-3.57,4.14-1.87,0-3-.94-2.44-4.51.57-3.2,1.51-4.14,3.57-4.14C508,320.77,508.55,321.9,508,325.28Zm19,1.13s.94,0,.94-.38l.56-3.57-11.46-3-.94,3,.94.57c.57-.94.57-1.5,2.07-.94l1.5.56-2.06,8.08c-.57.56-.57.56-1.51.56v2.07l5.07,1.5.94-1.5a1.72,1.72,0,0,1-.56-1.5l2.07-8.08.94.56c1.5.57,1.5,1.13,1.5,2.07ZM541.8,342c-1.13-.56-1.13-.94-.56-1.5l3.57-7.14c.56-.56.56-1.13,1.5-.56l.56-1.51-4.51-2.06-.94,1.5c1.13.56,1.13.94.57,1.5l-.94,2.07L536,331.67l.94-2.07c.56-.56.56-1.12,1.5-.56l.56-1.5-4.51-2.07-.94,1.5c1.13.57,1.13.94.57,1.51l-3.57,7.14c-.56.56-.56,1.12-1.5.56l-.57,1.5,4.51,2.07.94-1.5c-1.13-.57-1.13-.94-.56-1.51l1.5-2.63,5.07,3-1.5,2.63c-.56.56-.56,1.13-1.5.56l-.57,1.51,4.51,2.06Zm17.28,7.52c3-3.57,2.07-7.14-.93-9.77s-6.58-3.2-9.59.94c-3,3.57-2.06,7.14.94,9.77C552.51,353.46,555.89,353.46,559.08,349.52Zm-3.19-2.07c-2.07,2.44-3.57,3-5.07,1.5s-1.5-3,.56-5.63c2.07-2.44,3.57-3,5.07-1.5C558.52,342.75,558.52,344.26,555.89,347.45Zm5.45,15.78c2.63,2.44,4.51,3.57,6,1.32a4.17,4.17,0,0,0,.94-4.14,3.89,3.89,0,0,0,3.57,0c1.88-1.12,1.5-3.57-.56-6.2l-3.95-5.07-1.5.94c.56.56.56.94,0,1.5l-6,5.08c-.57.56-.94.56-1.51,0l-.94,1.5,4,5.07Zm4.51-3.94a1.94,1.94,0,0,1,0,3,2.64,2.64,0,0,1-3-.56l-.94-1.5,3-2.63Zm3-5.26.94,1.5a1.78,1.78,0,0,1,0,2.63,1.86,1.86,0,0,1-2.44-.56l-.94-1.51Zm13.53,23.48c.56-.56.94-.56,1.13-.75l1.5-.94-2.07-4.13-1.5.56c.38.94,0,.94-.56,1.5l-5.45,3c-.94.56-2.07,0-3-1.5s-.37-2.45.57-3l5.44-3c.94-.37.94-.37,1.51.57l1.5-.94L579,364.36l-1.5.56c.37.94,0,.94-.57,1.51l-5.45,3c-2.44,1.5-3,4.13-1.5,7.7,1.88,3,4.51,4.51,6.95,3l5.45-2.63Zm-4.51,22.54s1.13,0,1.32.19v-.56c-.57-1.13,0-1.5.94-2.07.94-.37,2.44-1.5,2.44-3a3.18,3.18,0,0,0,3.94,1.5c2.45-.56,3.38-3.19,2.45-6.2l-1.51-6.58h-2.06c.37.94,0,1.51-.57,1.51l-7.51,2.06c-.94,0-1.51,0-1.51-.94l-1.5.94,1.5,5.08h2.07c-.37-.94,0-1.51.56-1.51l2.45-.56.56,1.5c.56,2.44-3,1.88-4.51,4.51l.94,4.13Zm9.58-9.76a2.54,2.54,0,0,1-1.12,2.44c-.94.56-1.88,0-2.45-1.51l-.56-2.06,3.57-.94.56,2.07Zm-3,26.48,2.81,1.32V413l-2.06-.57c0,.94-.38.94-.94.94h-1.5c-.57,0-.57-.94-.57-1.5,0-2.63,1.51-4.13,4.51-4.13s4.51.94,4.51,3.57a2.82,2.82,0,0,1-2.07,3v.94l3,.57c0-1.13.94-3,.94-5.64-.56-4.51-3-7.14-7.52-7.14-5.07,0-6.57,3.57-6.57,7.7,0,2.44.94,3,.94,5.08l1.5.56c0-.56.38-.56.94-.56h1.13c.37,0,.94,0,.94.93Zm-7.52,15.41a32.82,32.82,0,0,0,3.76.75l.56-1.5c-.94-.57-.94-.57-.94-2.07l.57-3,3.57.56-.57,2.07c0,.94-.37.94-.94.94v1.5l3,.56v-1.5c-.56-.56-.56-.56-.56-1.5l.56-2.07,3,.56-.57,2.63c0,1.51-.56,1.51-1.5,1.51v1.5l3,.56,1.51-10.14-1.51-.57c0,.94,0,.94-.93.94l-7.52-.94c-.94,0-.94,0-.94-.94h-2.07l-1.5,10.15Zm4.51,20.29a1.22,1.22,0,0,1,.56,1.88l2.07.56,1.5-4.13-1.5-.94c-.56.56-.94,1.13-1.5.56L579,448.9a4.06,4.06,0,0,1-1.5-.56,9.86,9.86,0,0,1,2.06-.57l8.08-2.63,1.5-3.57-1.5-.94c-.56.57-.94,1.13-1.5.57l-7.52-2.63c-.56-.57-1.12-.57-.56-1.51L576,436.5l-1.5,4.13,1.5.94c.57-.56.94-1.12,1.51-.56l3.94.94a4.14,4.14,0,0,1,1.5.56,4.1,4.1,0,0,1-1.5.57l-9,2.63-.94,2.63,10,4.13Zm-15,5.26c-1.5,2.44-2.07,5.45.38,7.14,2.63,1.5,4.51,0,6.57-2.07.94-.94,1.88-1.5,2.44-.94a2.22,2.22,0,0,1,0,2.63,3.19,3.19,0,0,1-3,1.51l-.56.94,2.06,1.5a7.21,7.21,0,0,0,3.57-3.57c1.5-3,1.5-5.64-.56-7.14-2.44-1.5-4.51,0-6,1.5s-2.07,2.07-3,1.51a2.25,2.25,0,0,1,0-2.63,3.19,3.19,0,0,1,3.57-1.51l.56-.94-2.06-2.06a16.52,16.52,0,0,0-4,4.13ZM558,472.38c.56-.56.94-.56,1.5,0l6,5.08c.57.56.57.94,0,1.5l1.5.94,3.57-3.57-.93-1.5c-.57.56-.94.56-1.51,0l-6-5.08c-.56-.56-.56-.94,0-1.5l-1.5-.94L557,470.88ZM548.38,478c-1.88,2.07-3.39,4.7-1.32,7,1.5,2.63,4.13,2.07,6.58.56,1.5-1.12,2.44-1.12,3-.56.38,1.13.38,2.07-.56,2.63-1.13.56-2.63,1.13-3.57.56l-.94.57.94,2.63a37.18,37.18,0,0,0,4.51-2.63c2.06-2.07,3-4.51,1.5-6.58s-3.94-1.5-6-.56c-2.07,1.13-3,1.5-3.57.56-.94-1.12-.38-2.06.56-2.63a2.9,2.9,0,0,1,4-.56l.94-.94-.94-2.63a26.12,26.12,0,0,0-5.07,2.63Zm-71.77,30.06s1.5-1.5,1.32-1.5H477c-.94-.57-.94-.94-.94-1.51l3-11.27-2.44-.94a4.46,4.46,0,0,1-3.94,1.5l-.57,2.07c.94.56,1.88,0,2.44,0l-2.06,7.14c-.57.56-.57,1.13-1.51.56H470V506l6.57,2.07Zm13,2.63c3.38,0,6-.94,6.77-3.38,0-2.07-1.51-3.2-3-4.14,1.5-.37,3-1.5,3-3,.37-2.07-1.51-3.57-5.08-4.14-3.57,0-6,.94-6,3,0,1.5.94,2.63,2.44,3.57-1.5.56-3.56,1.5-3.56,3.57-.57,2.44,1.87,3.94,5.44,4.51Zm2.82-3.38c0,.94-.94,1.5-2.44,1.5a2.32,2.32,0,0,1-2.44-2.07c0-1.12.94-2.06,2.44-2.63A4.24,4.24,0,0,1,492.39,507.33Zm-1.88-8.83c.94,0,2.07.37,2.07,1.5s-1.13,1.5-2.07,2.07c-1.5-1.13-2.06-1.69-2.06-2.63,0-.38,1.12-.94,2.06-.94Zm22.36,2.82c-.56-3.57-2.63-6.2-6.58-5.64s-6,2.63-5.44,5.64c0,2.63,1.87,4.69,5.44,4.13a4.18,4.18,0,0,0,3-1.5c-.38,2.63-1.5,4.13-3.95,4.13-.94.56-1.87,0-2.44,0v2.06c.57.57,2.07.57,3,.57C511,510.14,513.06,506.58,512.87,501.32Zm-4.51-.19c0,2.06-.94,3-2.44,3a2.41,2.41,0,0,1-2.44-2.63c0-1.5.93-3,2.44-3C508,498.5,508.92,500,508.36,501.13Zm18,5.07v-.94h-.94c-.94.38-1.51,0-1.51-.56L521.51,494l-2.44.56a3.71,3.71,0,0,1-2.44,3l.56,2.06a6.58,6.58,0,0,0,2.07-1.5l2.06,7.14c0,.94,0,1.5-.94,1.5h-.94l.94,1.51L527,506.2Z" transform="translate(-187.86 -181)"/><path class="cls-2" d="M266.57,611.59c10.9,0,16-6,16-17.28v-25l.57-.56,6.57-.56v-2.07H272.77v2.07l6,.56.56.56c.56,6.58.56,15.78.56,24.43,0,10.33-2.44,15.4-11.46,15.4-8.45,0-10.52-5.63-10.52-13.71V569.89l.57-.57,5.07-.56v-2.07H245.16v2.07l6,.56.56.57V596C251.73,607.27,257.37,612.72,266.57,611.59Zm29.69-2.06H297v2.06h16.91v-2.06l-6-.57-.56-.56c0-6.58-.56-18.79-.56-34.19,8.08,12.21,17.47,25.55,25.55,37.2h2.44v-41.9l.56-.56,6.58-.57v-2.06H325v2.06l6,.57.57.56c0,6.76.56,18.41.56,31.19-6.58-9.21-15.41-22.36-23.48-33.63h-12.4v2.07l6.57.56h.57v38.89l-.57.56-6.57.56Zm51.47,2.25h19.92v-2.07l-6.58.57-.56-.57V570.83l.56-.57,6.58-.56v-2.07H347.73v2.07l6.58-.56.56.56v38.89l-.56.56-6.58.56Zm45.65,1.5h1.51c5.07-13.71,12.4-34.19,16-42.83h3.94v-2.07H400.34v2.07l5.07.56c-2.44,7.14-7.89,22.92-10.9,32.13-3.94-11.27-8.45-22.36-12-32.13l.56-.56,6-.56v-2.07h-16.9v2.07h3.94C380.61,581.72,386.62,596,393.38,613.28Zm26.12-2.44h31.94c1.12,0,1.12-.94,2.06-13.71H452c-2.63,8.08-5.64,10.71-6.58,10.71l-13,.56v-19h10.9l.56.56,2.44,5.63h.94V581.91h-.94l-2.44,4.51-.56.56c-1.88.57-7.89.57-10.9.57V569.7h12c.93,0,3,3.57,5.44,10.14h1.51l-.57-14.27h-.94l-2.44.94h-28v2.06l6.57.57.57.56v38.89l-.57.56-6.57.56Zm41.52-1.5h.56v2.07h19.54v-2.07l-6-.56-.57-.57V590.93a27.17,27.17,0,0,0,6.58-.57c.94,1.51,1.5,2.63,2.44,4.14,4.13,7.14,5.64,11.27,8.08,16.34l.56.57h9.58v-2.07h-1.5c-2.44,0-3.94-2.07-5.45-5.07-3.94-7.14-6.95-12.21-8.45-14.28,5.07-1.5,9.58-4.7,9.58-11.27,0-4.51-3-8.65-9-10.71a58.78,58.78,0,0,0-10.52-.94H461v2.07l6.57.56h.57v38.89l-.57.56-6.57.56Zm13.34-19.54V570.45h2.06c3.95,0,6,0,7.52.94a8,8,0,0,1,4.51,7.7C488.45,585.29,485.44,588.86,474.36,589.8Zm34,8.27v14.84h1.5l1.51-2.63a15.12,15.12,0,0,0,9,2.63c10,0,15-6.76,15-13.34,0-13.71-19.91-11.65-19.91-22.92,0-4.51,3-7.14,7-7.14s8.08,3.19,10.52,11.27h1.5l-.56-14.27H533l-2.07,2.06c-.94,0-4.5-1.5-8.45-1.5-8.45,0-13,5.45-13,11.65,0,14.27,19.91,11.64,19.91,22.92,0,4.51-3,8.07-8.45,8.07-4.51,0-8.08-3.56-10.52-11.64h-2.07Zm35.51,11.46h.56v2.63H564v-2.07l-6.58-.56-.56-.57V570.07l.56-.56,6-.94v-2.06H543.87v2.06l6.57.57.57.56v38.89l-.57.56-6.57.56Zm34,.37h.56V612h21.05V609.9l-7-.56-.57-.56V569.89h7.52c.94,0,3,2.06,5.44,10.14h1.51l-.57-14.28h-.94l-2.06.94H573.93l-2.07-.94h-.94L570.36,580h1.5c2.44-7.51,3.94-10.14,5.45-10.14h8.08v38.7l-.57.56-7,.56Zm46-.37h.56v2.63h19.92v-2.07l-6.58-.56-.56-.57V591.68c4.51-7.7,9.39-16.34,13-22h3.95v-2.07H640.24v2.07l4.51.56c-2.44,4.14-6.39,11.84-10,18.41-3.39-5.63-7.9-12.77-10.9-18.41l.56-.56,4.51-.56v-2.07H612.44v2.07h4.7c3,4.69,8.45,14.46,13.9,22.54v16.91l-.57.56-6.57.56Zm70.83,3.38c11.46,0,20.47-8.64,20.47-23.48,0-13.34-7.51-22.55-20.47-22.55-11.46,0-20.48,8.64-20.48,23.48C674.25,603.7,681.76,612.72,694.73,612.91Zm0-3.2c-8.46,0-13.53-6.57-13.53-19.91s5.07-19.91,13.53-19.91,13.52,6.57,13.52,19.91S702.8,609.71,694.73,609.71Zm27.42,0v.76H743.2V608.4l-7-.56-.56-.57V588.86H746.2l.56.57,2.45,6.19h.94V581.35h-.94l-2.45,4.51-.56.56c-1.88.56-7.89.56-10.9.56V569.14l12.4.56c.94,0,3,3.57,5.45,10.14h1.51l-.57-14.27h-.94l-2.44.94H722.15v2.06l6.58.57.56.56v38.89l-.56.56-6.58.56ZM289.31,691.63c6.57,0,12.58-2.63,13.52-4.14V672.65l3.95-.94v-2.07h-18v2.07l6.58.57.56.56v13.34c0,1.12-3.57,2.06-6.57,2.06-11.09,0-16.54-9.77-16.54-20.47,0-13.72,7.52-19.35,15-19.35,4.32,0,9.4,2.63,12.4,11.27h1.51l-.57-14.28h-.94l-2.06,2.07a34.34,34.34,0,0,0-10-1.51c-12.4,0-22,8.65-22,22.92S275.78,692,289.31,691.63Zm46.4.37c11.46,0,20.48-8.64,20.48-23.48,0-13.34-7.52-22.55-20.48-22.55-11.46,0-20.48,8.65-20.48,23.49C315.23,682.8,322.75,692,335.71,692Zm0-3.19c-8.45,0-13.53-6.58-13.53-19.92S327.63,649,335.71,649c8.45,0,13.53,6.57,13.53,19.91S343.6,688.81,335.71,688.81Zm37,2.06h22v-2.06l-6.95-.57-.56-.56V648.79h7.51c.94,0,3,2.07,5.45,10.15h1.69l-.56-14.28h-.94l-2.07.94H369.34l-2.07-.94h-.94l-.56,14.28h1.5c2.44-7.52,4-10.15,5.45-10.15h7.51v38.89l-.56.56-6.95.57Zm34.94-2.06v3.38h18.41v-2.07l-5.44-.56-.57-.56V670.58h21.42V689l-.56.56-5.45.56v2.07h18.41v-2.07l-6.58-.56-.56-.56V650.11l.56-.57,6.58-.56v-2.07H435.47V649l5.45.56.56.57v17.28H420.06V650.11l.57-.57,5.44-.56v-2.07H407.66v1.88l6.58-.56.56.56v38.89l-.56.56-6.58.57Zm52.79-.38H461v.94H493c1.13,0,1.13-.94,2.07-13.71h-1.5c-2.63,8.07-5.64,10.71-6.58,10.71l-13,.56V668h10.9l.56.57,2.44,5.63h.94V660.44h-.94L485.44,665l-.56.56c-1.88.57-7.89.57-10.9.57V648.23l12,.56c.94,0,3,3.57,5.45,10.15H493l-.56-14.28h-.94l-2.44.94H460.45v2.06l6.58.57.56.56v38.89l-.56.56-6.58.57Zm41.52.19h.19v1.5h16.91v-2.06l-6-.57-.57-.56c0-6.58-.56-18.79-.56-34.19C520,665,529.4,678.29,537.48,689.93h3V648l.56-.56,6.57-.57v-2.06h-16.9v2.06l6,.57.56.56c0,6.76.57,18.41.57,31.19-6.58-9.21-15.41-22.36-23.49-33.63H502v2.06l6.58.57.56.56v38.89l-.56.56-6.58.57Zm52-.19h-.75v2.07h16c12.4,0,20.48-4.51,20.48-13.72,0-5.26-4-9.2-10.9-9.77a9.87,9.87,0,0,0,8.08-10.14c0-4.7-3-8.27-8.08-9.77a32.92,32.92,0,0,0-10.9-1.5H554v2.06l6.58.57.56.56v38.89l-.56.56-6.58.57Zm13-21.6c-.56-7.52,0-13.72,0-17.29l.57-.56H569c3.57,0,6,.56,7.52,1.5,3,1.51,3.94,4.14,3.94,7.7,0,5.08-2.07,8.65-9.58,8.65Zm16.35,11.83c0,6-4.32,10.15-13.34,10.34h-3l-.56-.57V670h7c6,0,10,2.44,10,8.64Zm21-3.57c0,11.28,5.45,16.91,14.84,15.6,10.9,0,16-6,16-17.29v-25l.56-.57,6.58-.56v-2.07H625.4v2.07l6,.56.57.57c.56,6.57.56,15.78.56,24.42,0,10.33-2.44,15.4-11.46,15.4-8.45,0-10.52-5.63-10.52-13.71V649l.56-.56,5.08-.57v-2.06H597.79v2.06l6,.57.56.56v26.11Zm44.53,13.72s0,2.63-.38,2.06h19.54v-2.06l-6-.57-.57-.56V670.4a16.29,16.29,0,0,0,7.52-1.51c.94,1.51,1.5,2.63,2.44,4.14,4.13,7.14,5.64,11.27,8.08,16.34l.56.56h9.58v-2.06h-1.5c-2.44,0-3.95-2.07-5.45-5.07-3.94-7.14-7-12.22-8.45-14.28,5.07-1.51,9.58-4.7,9.58-11.27,0-4.51-3-8.65-9-10.71a58.78,58.78,0,0,0-10.52-.94h-15.4v2.06l6.57.57.56.56v38.89l-.56.56-6.57.57Zm27.42-30.63c0,6.2-3.57,9.77-14.09,10.71V649.54h2.07c4,0,6,0,7.52.94a8,8,0,0,1,4.5,7.7Zm41,33.07c6.57,0,12.59-2.63,13.53-4.13V672.84l.56-.56,4.51-.57v-2.07h-18v2.07l6.58.57.56.56v13.34c0,1.12-3.57,2.06-6.57,2.06-11.09,0-16.54-9.77-16.54-20.47,0-13.72,7.52-19.35,15-19.35,4.32,0,9.4,2.63,12.4,11.27h1.51l-.57-14.28h-.94l-2.06,2.07a34.34,34.34,0,0,0-10-1.51c-12.4,0-22,8.65-22,22.92S704.68,692,717.27,691.25Z" transform="translate(-187.86 -181)"/></g></svg>