<svg xmlns="http://www.w3.org/2000/svg" viewBox="0 0 146.249 130.091"><g id="Layer_2" data-name="Layer 2"><g id="Layer_1-2" data-name="Layer 1"><rect x="80.123" y="55.264" width="16.519" height="4.016"/><path d="M44.847,69.75a32.224,32.224,0,0,0,.615-4.016H28.88a6.137,6.137,0,0,1-2.11,4.016Z"/><path d="M45.567,64.514c.051-.843.08-1.708.08-2.6V60.5H29.128v2.422c0,.571-.035,1.088-.078,1.593Z"/><path d="M51,60.5v1.414c0,.894.031,1.757.081,2.6H67.592c-.043-.5-.079-1.022-.079-1.593V60.5Z"/><rect x="101.99" y="55.264" width="16.266" height="4.016"/><path d="M118.256,60.5H101.99v1.288c0,.938.026,1.844.072,2.727h16.251c-.026-.432-.057-.855-.057-1.341Z"/><path d="M79.875,65.734a6.137,6.137,0,0,1-2.11,4.016h18.1a32.519,32.519,0,0,0,.592-4.016Z"/><path d="M67.762,65.734H51.184a32.71,32.71,0,0,0,.592,4.016h18.1A6.133,6.133,0,0,1,67.762,65.734Z"/><path d="M80.123,60.5v2.422c0,.571-.035,1.088-.078,1.593H96.56c.05-.844.082-1.707.082-2.6V60.5Z"/><path d="M41.388,77.8a17.92,17.92,0,0,0,1.037-1.593H3.208a17.047,17.047,0,0,0,3.245,4.016H43.811Z"/><path d="M16.519,62.921V60.5H0v1.414c0,.894.031,1.757.082,2.6H16.6C16.554,64.009,16.519,63.492,16.519,62.921Z"/><polygon points="35.723 90.691 48.743 90.691 51.512 87.922 50.265 86.675 31.707 86.675 35.723 90.691"/><rect x="123.317" y="41.107" width="22.932" height="12.937"/><path d="M102.655,69.75h17.583a6.091,6.091,0,0,1-1.8-4.016H102.157A39.475,39.475,0,0,0,102.655,69.75Z"/><path d="M52.1,70.97a22.468,22.468,0,0,0,1.486,4.015H94.052a22.547,22.547,0,0,0,1.487-4.015Z"/><path d="M58.938,81.44c3.458,2.511,8.05,3.862,13.785,4.015h2.192c5.734-.153,10.326-1.5,13.783-4.015Z"/><path d="M54.2,76.205a17.047,17.047,0,0,0,3.245,4.016H90.189a17.043,17.043,0,0,0,3.244-4.016Z"/><rect x="129.73" y="60.499" width="16.519" height="4.015"/><path d="M129.73,65.734v.213a5.554,5.554,0,0,1-2.058,3.8h18.577V65.734Z"/><rect x="129.73" y="55.264" width="16.519" height="4.016"/><path d="M104.661,76.205a17.385,17.385,0,0,0,2.617,4.016h38.971V76.205Z"/><path d="M118.256,54.044V22.318c0-5.673,1.892-7.944,5.927-7.944,3.4,0,5.3,1.514,5.421,5.044V32.092h16.267V20.806C145.744,7.187,138.179,0,124.183,0,109.3,0,101.99,8.2,101.99,23.706V54.044Z"/><path d="M102.926,70.97a26.413,26.413,0,0,0,1.227,4.015h42.1V70.97Z"/><path d="M67.513,54.044V42.923c0-5.548,2.018-7.944,6.306-7.944s6.3,2.4,6.3,7.944V54.044H96.642V44.058c0-15.51-7.566-23.706-22.823-23.58C58.56,20.478,51,28.548,51,44.058v9.986Z"/><polygon points="36.942 91.911 42.233 97.202 47.524 91.911 36.942 91.911"/><path d="M16.519,54.044V22.571c0-5.548,2.018-7.944,6.305-7.944s6.3,2.4,6.3,7.944V54.044H45.647V23.706C45.647,8.2,38.081,0,22.824.126,7.566.126,0,8.2,0,23.706V54.044Z"/><rect y="55.264" width="16.519" height="4.016"/><rect x="50.995" y="55.264" width="16.519" height="4.016"/><path d="M18.877,69.75a6.137,6.137,0,0,1-2.11-4.016H.189A32.71,32.71,0,0,0,.781,69.75Z"/><rect x="29.128" y="55.264" width="16.519" height="4.016"/><path d="M108.469,81.44a16.211,16.211,0,0,0,10.716,4.015H121.1c4.8-.175,8.262-1.524,10.715-3.957l.881,2.86h13.551V81.44Z"/><path d="M43.063,74.985a22.464,22.464,0,0,0,1.5-4.015H1.1A22.47,22.47,0,0,0,2.59,74.985Z"/><path d="M49.046,85.455,45.03,81.44H7.943c3.458,2.511,8.05,3.862,13.785,4.015Z"/><path d="M2.857,106.843H.024v-.952h6.8v.952H3.988v7.546H2.857Z"/><path d="M7.918,105.891h1.13v3.654h4.476v-3.654h1.131v8.5H13.524V110.5H9.048v3.892H7.918Z"/><path d="M16.613,105.891h5.868v.952H17.743v2.7h4.416v.952H17.743v2.94h4.774v.952h-5.9Z"/><path d="M34.477,115.127l-1.3-1.048a3.849,3.849,0,0,1-2.035.512c-2.7,0-4.071-2.13-4.071-4.451s1.37-4.451,4.071-4.451,4.07,2.13,4.07,4.451a4.71,4.71,0,0,1-1.285,3.38l1.119.893Zm-2.5-3.166,1.131.905a3.852,3.852,0,0,0,.976-2.726c0-1.714-.869-3.5-2.94-3.5s-2.94,1.785-2.94,3.5.869,3.5,2.94,3.5a3.012,3.012,0,0,0,1.178-.238l-.94-.75Z"/><path d="M43.533,111.318c0,2.154-1.213,3.273-3.343,3.273-2.191,0-3.488-1.012-3.488-3.273v-5.427h1.131v5.427a2.107,2.107,0,0,0,2.357,2.321,2.035,2.035,0,0,0,2.214-2.321v-5.427h1.129Z"/><path d="M47.5,105.891h1.25l3.32,8.5h-1.25l-.927-2.559H46.3l-.952,2.559H44.181Zm-.845,4.987h2.88l-1.416-3.964H48.1Z"/><path d="M53.116,105.891h1.13v7.546h4.5v.952H53.116Z"/><path d="M59.886,105.891h1.131v8.5H59.886Z"/><path d="M64.96,106.843H62.127v-.952h6.8v.952H66.091v7.546H64.96Z"/><path d="M73.984,110.913v3.476H72.853v-3.476l-3.285-5.022h1.345l2.547,4.047,2.487-4.047h1.286Z"/><path d="M85.444,105.689c2.7,0,4.07,2.13,4.07,4.451s-1.368,4.451-4.07,4.451-4.071-2.13-4.071-4.451S82.742,105.689,85.444,105.689Zm0,7.95c2.071,0,2.94-1.785,2.94-3.5s-.869-3.5-2.94-3.5-2.94,1.785-2.94,3.5S83.373,113.639,85.444,113.639Z"/><path d="M91.026,105.891h5.582v.952H92.155v2.7H96.06v.952H92.155v3.892H91.026Z"/><path d="M7.284,128.829a3.393,3.393,0,0,1-2.725,1.262,4.066,4.066,0,0,1-4.048-4.285c0-2.475,1.357-4.617,4.048-4.617,1.845,0,3.344.833,3.653,2.821H7.082a2.294,2.294,0,0,0-2.523-1.869c-2.06,0-2.917,1.8-2.917,3.606,0,1.774,1.024,3.392,2.917,3.392a2.553,2.553,0,0,0,2.725-2.773H4.571v-.952H8.3v4.475H7.581Z"/><path d="M13.7,121.189c2.7,0,4.071,2.13,4.071,4.451s-1.369,4.451-4.071,4.451-4.07-2.13-4.07-4.451S11,121.189,13.7,121.189Zm0,7.95c2.072,0,2.941-1.785,2.941-3.5s-.869-3.5-2.941-3.5-2.939,1.785-2.939,3.5S11.633,129.139,13.7,129.139Z"/><path d="M22.372,129.889H21.087l-3-8.5h1.226l2.427,7.367h.025l2.451-7.367H25.4Z"/><path d="M26.478,121.391h5.867v.952H27.608v2.7h4.416V126H27.608v2.94h4.773v.952h-5.9Z"/><path d="M33.753,121.391h4c1.607,0,2.582.857,2.582,2.226a2.018,2.018,0,0,1-1.475,2.154v.024c.988.19,1.178.928,1.273,1.749a4.249,4.249,0,0,0,.5,2.345H39.37c-.321-.345-.142-1.262-.309-2.1-.131-.821-.322-1.535-1.416-1.535H34.883v3.63h-1.13Zm3.487,3.916c1.047,0,1.963-.274,1.963-1.512a1.339,1.339,0,0,0-1.51-1.452h-2.81v2.964Z"/><path d="M42.055,121.391h1.2l4.476,6.892h.023v-6.892h1.071v8.5H47.59l-4.439-6.82h-.025v6.82H42.055Z"/><path d="M50.786,121.391h1.547l2.679,7.142,2.689-7.142h1.547v8.5H58.177v-7.07h-.023l-2.655,7.07h-.964l-2.654-7.07h-.023v7.07H50.786Z"/><path d="M61.225,121.391h5.867v.952H62.355v2.7h4.416V126H62.355v2.94h4.773v.952h-5.9Z"/><path d="M68.493,121.391h1.2l4.475,6.892h.024v-6.892h1.071v8.5H74.029l-4.44-6.82h-.024v6.82H68.493Z"/><path d="M79.191,122.343H76.358v-.952h6.8v.952H80.321v7.546h-1.13Z"/><path d="M87.806,121.391h1.131v8.5H87.806Z"/><path d="M90.9,121.391h1.2l4.475,6.892H96.6v-6.892h1.071v8.5H96.431l-4.44-6.82h-.024v6.82H90.9Z"/><path d="M104.56,123.879a1.845,1.845,0,0,0-2.107-1.738c-.964,0-1.9.345-1.9,1.452,0,2.095,5.439.619,5.439,3.963,0,1.81-1.773,2.535-3.321,2.535-1.9,0-3.511-.94-3.511-3h1.072c0,1.428,1.19,2.047,2.475,2.047,1.024,0,2.155-.321,2.155-1.547,0-2.333-5.44-.8-5.44-3.916,0-1.714,1.524-2.487,3.083-2.487,1.737,0,3.07.821,3.13,2.69Z"/><path d="M109.335,122.343H106.5v-.952h6.8v.952h-2.832v7.546h-1.131Z"/><path d="M114.42,121.391h1.131v8.5H114.42Z"/><path d="M119.5,122.343h-2.833v-.952h6.8v.952h-2.832v7.546H119.5Z"/><path d="M131.36,126.819c0,2.154-1.214,3.272-3.344,3.272-2.191,0-3.487-1.012-3.487-3.272v-5.428h1.13v5.428a2.107,2.107,0,0,0,2.357,2.32,2.035,2.035,0,0,0,2.214-2.32v-5.428h1.13Z"/><path d="M135.274,122.343h-2.833v-.952h6.8v.952h-2.832v7.546h-1.131Z"/><path d="M140.336,121.391H146.2v.952h-4.737v2.7h4.416V126h-4.416v2.94h4.773v.952h-5.9Z"/></g></g></svg>